# Blender 5.0.1
# www.blender.org
mtllib Paddle.mtl
o Cube
v 0.860530 0.071711 -0.914400
v 0.860530 0.076200 -0.860530
v 0.914400 0.071711 -0.860530
v 0.860530 -0.076200 -0.914400
v 0.914400 -0.076200 -0.860530
v 0.914400 0.071711 0.860530
v 0.860530 0.076200 0.860530
v 0.860530 0.071711 0.914400
v 0.914400 -0.076200 0.860530
v 0.860530 -0.076200 0.914400
v -0.860530 0.071711 -0.914400
v -0.914400 0.071711 -0.860530
v -0.860530 0.076200 -0.860530
v -0.914400 -0.076200 -0.860530
v -0.860530 -0.076200 -0.914400
v -0.914400 0.071711 0.860530
v -0.860530 0.071711 0.914400
v -0.860530 0.076200 0.860530
v -0.860530 -0.076200 0.914400
v -0.914400 -0.076200 0.860530
vn 0.0828 0.9931 -0.0828
vn 0.0828 0.9931 0.0828
vn -0.0828 0.9931 -0.0828
vn -0.0828 0.9931 0.0828
vn 0.7071 -0.0000 -0.7071
vn -0.7071 -0.0000 0.7071
vn 0.7071 -0.0000 0.7071
vn -0.7071 -0.0000 -0.7071
vn -0.0000 0.9965 0.0830
vn 0.0830 0.9965 -0.0000
vn -0.0830 0.9965 -0.0000
vn -0.0000 0.9965 -0.0830
vn -0.0000 -0.0000 -1.0000
vn 1.0000 -0.0000 -0.0000
vn -0.0000 1.0000 -0.0000
vn -0.0000 -1.0000 -0.0000
vn -0.0000 -0.0000 1.0000
vn -1.0000 -0.0000 -0.0000
vt 0.625000 0.496318
vt 0.632364 0.507364
vt 0.619477 0.507364
vt 0.619477 0.742636
vt 0.632364 0.742636
vt 0.625000 0.753682
vt 0.867636 0.500000
vt 0.875000 0.507364
vt 0.867636 0.507364
vt 0.875000 0.742636
vt 0.867636 0.750000
vt 0.867636 0.742636
vt 0.375000 0.507364
vt 0.372545 0.495091
vt 0.375000 0.000000
vt 0.617636 0.000000
vt 0.617636 0.007364
vt 0.375000 0.007364
vt 0.372545 0.754909
vt 0.375000 0.742636
vt 0.617636 0.257364
vt 0.375000 0.257364
vt 0.375000 0.242636
vt 0.617636 0.242636
vt 0.125000 0.507364
vt 0.132364 0.500000
vt 0.132364 0.750000
vt 0.125000 0.742636
vt 0.617636 0.992636
vt 0.375000 0.992636
s 0
usemtl Material
f 1/1/1 2/2/1 3/3/1
f 6/4/2 7/5/2 8/6/2
f 11/7/3 12/8/3 13/9/3
f 16/10/4 17/11/4 18/12/4
f 3/3/5 5/13/5 4/14/5 1/1/5
f 19/15/6 17/16/6 16/17/6 20/18/6
f 8/6/7 10/19/7 9/20/7 6/4/7
f 11/21/8 15/22/8 14/23/8 12/24/8
f 7/5/9 18/12/9 17/11/9 8/6/9
f 2/2/10 7/5/10 6/4/10 3/3/10
f 18/12/11 13/9/11 12/8/11 16/10/11
f 13/9/12 2/2/12 1/1/12 11/7/12
f 15/22/13 11/21/13 1/1/13 4/14/13
f 5/13/14 3/3/14 6/4/14 9/20/14
f 2/2/15 13/9/15 18/12/15 7/5/15
f 14/25/16 15/26/16 4/14/16 5/13/16 9/20/16 10/19/16 19/27/16 20/28/16
f 10/19/17 8/6/17 17/29/17 19/30/17
f 20/18/18 16/17/18 12/24/18 14/23/18
